<?xml version="1.0" encoding="UTF-8" standalone="no"?>
<!-- Created with Inkscape (http://www.inkscape.org/) -->

<svg
   xmlns:dc="http://purl.org/dc/elements/1.1/"
   xmlns:cc="http://creativecommons.org/ns#"
   xmlns:rdf="http://www.w3.org/1999/02/22-rdf-syntax-ns#"
   xmlns:svg="http://www.w3.org/2000/svg"
   xmlns="http://www.w3.org/2000/svg"
   xmlns:sodipodi="http://sodipodi.sourceforge.net/DTD/sodipodi-0.dtd"
   xmlns:inkscape="http://www.inkscape.org/namespaces/inkscape"
   width="2.9103804mm"
   height="5.1180391mm"
   viewBox="0 0 2.9103804 5.1180391"
   version="1.1"
   id="svg8"
   inkscape:version="0.92.4 (5da689c313, 2019-01-14)">
  <defs
     id="defs2" />
  <sodipodi:namedview
     id="base"
     pagecolor="#ffffff"
     bordercolor="#666666"
     borderopacity="1.0"
     inkscape:pageopacity="0.0"
     inkscape:pageshadow="2"
     inkscape:zoom="24.774754"
     inkscape:cx="4.2893937"
     inkscape:cy="10.392299"
     inkscape:document-units="mm"
     inkscape:current-layer="layer1"
     showgrid="false"
     fit-margin-top="0"
     fit-margin-left="0"
     fit-margin-right="0"
     fit-margin-bottom="0"
     inkscape:window-width="1600"
     inkscape:window-height="875"
     inkscape:window-x="0"
     inkscape:window-y="0"
     inkscape:window-maximized="1" />
  <metadata
     id="metadata5">
    <rdf:RDF>
      <cc:Work
         rdf:about="">
        <dc:format>image/svg+xml</dc:format>
        <dc:type
           rdf:resource="http://purl.org/dc/dcmitype/StillImage" />
        <dc:title></dc:title>
      </cc:Work>
    </rdf:RDF>
  </metadata>
  <g
     inkscape:label="Layer 1"
     inkscape:groupmode="layer"
     id="layer1"
     transform="translate(-62.52955,-195.88127)">
    <path
       style="fill:#6d6d6d;fill-opacity:1;stroke-width:0.0100219"
       d="m 63.436465,200.99302 c -0.07815,-0.0244 -0.147928,-0.0905 -0.168698,-0.15978 -0.0085,-0.0283 -0.01163,-0.29647 -0.01163,-0.98723 v -0.94841 l -0.268086,-2.3e-4 c -0.247997,-1.9e-4 -0.271465,-0.002 -0.313184,-0.0206 -0.0556,-0.0252 -0.09537,-0.062 -0.123687,-0.11444 -0.02127,-0.0394 -0.02163,-0.0478 -0.02163,-0.5061 0,-0.43748 0.0012,-0.46837 0.01902,-0.50431 0.0242,-0.0487 0.06721,-0.0917 0.119944,-0.11994 0.03934,-0.021 0.05521,-0.0223 0.313582,-0.0254 l 0.272146,-0.003 0.0046,-0.31247 c 0.005,-0.33686 0.01413,-0.40966 0.07385,-0.58808 0.121318,-0.36249 0.406068,-0.64578 0.76526,-0.76135 0.174811,-0.0562 0.224237,-0.0604 0.711023,-0.0604 0.504611,0 0.487878,-0.002 0.558744,0.0718 0.06718,0.0701 0.06776,0.074 0.07143,0.48443 0.0018,0.20395 3.9e-4,0.3986 -0.0032,0.43256 -0.0088,0.0836 -0.05339,0.15763 -0.119523,0.19846 l -0.04928,0.0304 -0.301483,0.006 c -0.325442,0.006 -0.359631,0.0116 -0.379147,0.0579 -0.0064,0.0151 -0.0129,0.11484 -0.01532,0.23365 l -0.0042,0.20732 0.324209,0.003 c 0.315588,0.003 0.325463,0.004 0.371372,0.0264 0.02594,0.0128 0.06146,0.0395 0.07892,0.0594 0.06478,0.0738 0.06401,0.068 0.06755,0.50866 0.0018,0.22048 3.41e-4,0.42866 -0.0032,0.46262 -0.0087,0.0836 -0.05326,0.1576 -0.119469,0.19846 l -0.0493,0.0304 -0.334039,0.003 -0.334038,0.003 v 0.94791 c 0,0.69039 -0.0032,0.95846 -0.01163,0.98673 -0.01506,0.0503 -0.06973,0.11366 -0.122236,0.14174 -0.041,0.0219 -0.04732,0.0222 -0.507535,0.024 -0.25631,0.001 -0.477322,-0.002 -0.491138,-0.006 z m 0.832323,-1.26611 c 4.66e-4,-1.0319 -3.8e-5,-1.01989 0.04621,-1.07192 0.01017,-0.0114 0.03653,-0.0291 0.05858,-0.0392 0.03643,-0.0167 0.07192,-0.0184 0.38848,-0.0186 l 0.348393,-2.3e-4 -0.0026,-0.34325 -0.0026,-0.34325 -0.365799,-0.005 c -0.408384,-0.006 -0.396518,-0.003 -0.443293,-0.0787 -0.02178,-0.035 -0.02286,-0.047 -0.02597,-0.28709 -0.0035,-0.27258 0.007,-0.40504 0.03893,-0.4904 0.02563,-0.0685 0.09736,-0.14946 0.160998,-0.1817 0.09584,-0.0486 0.147556,-0.0562 0.417156,-0.0618 l 0.253053,-0.005 v -0.31522 -0.31523 l -0.383338,0.004 c -0.345143,0.004 -0.392048,0.007 -0.470761,0.0254 -0.368381,0.0884 -0.602445,0.32421 -0.700911,0.70615 -0.01932,0.0749 -0.02183,0.11936 -0.02737,0.48413 l -0.0061,0.40164 -0.02667,0.0403 c -0.04745,0.0717 -0.05726,0.0735 -0.398275,0.0735 h -0.301647 v 0.34576 0.34575 l 0.29314,2.3e-4 c 0.262939,1.9e-4 0.297271,0.002 0.333228,0.0186 0.02205,0.0101 0.04841,0.0278 0.05858,0.0392 0.04626,0.052 0.04575,0.04 0.04621,1.07192 l 4.4e-4,0.97463 h 0.355778 0.355777 l 4.4e-4,-0.97463 z"
       id="path873"
       inkscape:connector-curvature="0" />
  </g>
</svg>
