<?xml version="1.0" encoding="UTF-8" standalone="no"?>
<svg
   xmlns:dc="http://purl.org/dc/elements/1.1/"
   xmlns:cc="http://creativecommons.org/ns#"
   xmlns:rdf="http://www.w3.org/1999/02/22-rdf-syntax-ns#"
   xmlns:svg="http://www.w3.org/2000/svg"
   xmlns="http://www.w3.org/2000/svg"
   xmlns:sodipodi="http://sodipodi.sourceforge.net/DTD/sodipodi-0.dtd"
   xmlns:inkscape="http://www.inkscape.org/namespaces/inkscape"
   height="18.35"
   viewBox="0 0 20 18.35"
   width="20"
   version="1.1"
   id="svg6"
   sodipodi:docname="favorite_border-24px.svg"
   inkscape:version="0.92.4 (5da689c313, 2019-01-14)">
  <metadata
     id="metadata12">
    <rdf:RDF>
      <cc:Work
         rdf:about="">
        <dc:format>image/svg+xml</dc:format>
        <dc:type
           rdf:resource="http://purl.org/dc/dcmitype/StillImage" />
        <dc:title></dc:title>
      </cc:Work>
    </rdf:RDF>
  </metadata>
  <defs
     id="defs10" />
  <sodipodi:namedview
     pagecolor="#ffffff"
     bordercolor="#666666"
     borderopacity="1"
     objecttolerance="10"
     gridtolerance="10"
     guidetolerance="10"
     inkscape:pageopacity="0"
     inkscape:pageshadow="2"
     inkscape:window-width="794"
     inkscape:window-height="480"
     id="namedview8"
     showgrid="false"
     fit-margin-top="0"
     fit-margin-left="0"
     fit-margin-right="0"
     fit-margin-bottom="0"
     inkscape:zoom="9.8333333"
     inkscape:cx="10"
     inkscape:cy="9.35"
     inkscape:window-x="0"
     inkscape:window-y="0"
     inkscape:window-maximized="0"
     inkscape:current-layer="svg6" />
  <path
     d="M -2,-3 H 22 V 21 H -2 Z"
     id="path2"
     inkscape:connector-curvature="0"
     style="fill:none" />
  <path
     d="M 14.5,0 C 12.76,0 11.09,0.81 10,2.09 8.91,0.81 7.24,0 5.5,0 2.42,0 0,2.42 0,5.5 0,9.28 3.4,12.36 8.55,17.04 L 10,18.35 11.45,17.03 C 16.6,12.36 20,9.28 20,5.5 20,2.42 17.58,0 14.5,0 Z M 10.1,15.55 10,15.65 9.9,15.55 C 5.14,11.24 2,8.39 2,5.5 2,3.5 3.5,2 5.5,2 7.04,2 8.54,2.99 9.07,4.36 h 1.87 C 11.46,2.99 12.96,2 14.5,2 c 2,0 3.5,1.5 3.5,3.5 0,2.89 -3.14,5.74 -7.9,10.05 z"
     id="path4"
     inkscape:connector-curvature="0"
     style="fill:#009ee2;fill-opacity:1" />
</svg>
