<?xml version="1.0" encoding="UTF-8" standalone="no"?>
<!-- Created with Inkscape (http://www.inkscape.org/) -->

<svg
   xmlns:dc="http://purl.org/dc/elements/1.1/"
   xmlns:cc="http://creativecommons.org/ns#"
   xmlns:rdf="http://www.w3.org/1999/02/22-rdf-syntax-ns#"
   xmlns:svg="http://www.w3.org/2000/svg"
   xmlns="http://www.w3.org/2000/svg"
   xmlns:sodipodi="http://sodipodi.sourceforge.net/DTD/sodipodi-0.dtd"
   xmlns:inkscape="http://www.inkscape.org/namespaces/inkscape"
   width="4.2333312mm"
   height="4.2420053mm"
   viewBox="0 0 4.2333312 4.2420053"
   version="1.1"
   id="svg8"
   inkscape:version="0.92.4 (5da689c313, 2019-01-14)">
  <defs
     id="defs2" />
  <sodipodi:namedview
     id="base"
     pagecolor="#ffffff"
     bordercolor="#666666"
     borderopacity="1.0"
     inkscape:pageopacity="0.0"
     inkscape:pageshadow="2"
     inkscape:zoom="15.840739"
     inkscape:cx="15.8789"
     inkscape:cy="4.4019869"
     inkscape:document-units="mm"
     inkscape:current-layer="layer1"
     showgrid="false"
     fit-margin-top="0"
     fit-margin-left="0"
     fit-margin-right="0"
     fit-margin-bottom="0"
     inkscape:window-width="1600"
     inkscape:window-height="875"
     inkscape:window-x="0"
     inkscape:window-y="0"
     inkscape:window-maximized="1" />
  <metadata
     id="metadata5">
    <rdf:RDF>
      <cc:Work
         rdf:about="">
        <dc:format>image/svg+xml</dc:format>
        <dc:type
           rdf:resource="http://purl.org/dc/dcmitype/StillImage" />
        <dc:title></dc:title>
      </cc:Work>
    </rdf:RDF>
  </metadata>
  <g
     inkscape:label="Layer 1"
     inkscape:groupmode="layer"
     id="layer1"
     transform="translate(-30.082697,-250.75953)">
    <path
       style="fill:#6d6d6d;fill-opacity:1;stroke-width:0.00829474"
       d="m 31.431302,254.99683 c -0.09027,-0.004 -0.202254,-0.011 -0.248842,-0.0163 -0.587914,-0.0673 -0.965888,-0.41537 -1.06329,-0.97905 -0.02566,-0.14847 -0.0306,-0.28245 -0.03497,-0.94664 -0.0069,-1.04986 0.0074,-1.27417 0.09724,-1.52935 0.05523,-0.1568 0.133297,-0.28174 0.250783,-0.4013 0.18691,-0.19023 0.414279,-0.29697 0.718314,-0.33724 0.169059,-0.0224 0.562431,-0.0308 1.224606,-0.0262 0.787408,0.005 0.913322,0.0142 1.123938,0.0778 0.18781,0.0567 0.324362,0.13658 0.461271,0.26979 0.198448,0.19307 0.303233,0.42194 0.344825,0.75315 0.0085,0.0675 0.01092,0.29703 0.01085,1.02026 -6.3e-5,0.83969 -0.0015,0.94364 -0.01448,1.03787 -0.04463,0.32465 -0.151027,0.55174 -0.347602,0.7419 -0.203427,0.19679 -0.450375,0.29646 -0.811547,0.32756 -0.12739,0.011 -1.480422,0.0172 -1.711107,0.008 z m 1.532265,-0.38177 c 0.214751,-0.009 0.324619,-0.0233 0.427293,-0.0546 0.134523,-0.041 0.230838,-0.10049 0.324379,-0.20024 0.131255,-0.13997 0.191042,-0.29598 0.215364,-0.56197 0.01364,-0.14919 0.02017,-1.31137 0.009,-1.60918 -0.01036,-0.27717 -0.02341,-0.38515 -0.06062,-0.50163 -0.04328,-0.13548 -0.09582,-0.22158 -0.190531,-0.31226 -0.147066,-0.1408 -0.319999,-0.20061 -0.630944,-0.21821 -0.424451,-0.024 -1.636158,-0.0164 -1.848936,0.0116 -0.403002,0.0531 -0.635798,0.2647 -0.707623,0.64332 -0.02725,0.14363 -0.03299,0.32976 -0.03304,1.06983 -5.6e-5,0.88956 0.0073,1.02195 0.06729,1.20688 0.04261,0.13139 0.09347,0.21111 0.197511,0.3096 0.05817,0.0551 0.08854,0.0763 0.156573,0.10954 0.141483,0.0691 0.277885,0.0964 0.534785,0.10716 0.223543,0.009 1.324511,0.009 1.539457,2.2e-4 z m -0.849706,-0.64854 c -0.192626,-0.013 -0.39606,-0.0897 -0.562703,-0.21198 -0.06041,-0.0443 -0.172034,-0.15636 -0.220567,-0.22135 -0.0525,-0.0703 -0.102818,-0.16105 -0.137753,-0.24842 -0.05484,-0.13717 -0.07534,-0.24833 -0.07508,-0.40705 5.08e-4,-0.30163 0.113717,-0.56711 0.331878,-0.77829 0.162998,-0.15778 0.354273,-0.25459 0.578514,-0.29281 0.117948,-0.0201 0.325652,-0.0126 0.434087,0.0157 0.218409,0.057 0.380954,0.15233 0.533986,0.31314 0.194878,0.20478 0.295422,0.45874 0.295422,0.74619 0,0.30579 -0.111822,0.56998 -0.33108,0.78222 -0.12399,0.12002 -0.250116,0.19713 -0.409811,0.25056 -0.142344,0.0476 -0.2728,0.0632 -0.436896,0.0521 z m 0.235235,-0.39228 c 0.135213,-0.0279 0.251249,-0.0909 0.350029,-0.19004 0.142914,-0.1434 0.210553,-0.30374 0.210887,-0.49993 2.51e-4,-0.14755 -0.03735,-0.27256 -0.11879,-0.39496 -0.132527,-0.19918 -0.346878,-0.31298 -0.588735,-0.31256 -0.188377,3.2e-4 -0.347891,0.0649 -0.48899,0.19802 -0.213009,0.20094 -0.275756,0.53355 -0.151421,0.80266 0.09188,0.19886 0.279763,0.35065 0.489574,0.39551 0.07641,0.0163 0.221579,0.017 0.297446,0.001 z m 0.905292,-1.58595 c -0.06206,-0.0211 -0.13714,-0.0991 -0.15705,-0.16308 -0.0497,-0.15978 0.05757,-0.31606 0.224411,-0.32696 0.08535,-0.006 0.1354,0.013 0.194587,0.0722 0.05919,0.0592 0.07775,0.10924 0.07217,0.19459 -0.0063,0.0958 -0.05383,0.169 -0.135938,0.20917 -0.0584,0.0286 -0.13883,0.0343 -0.198185,0.0141 z"
       id="path857"
       inkscape:connector-curvature="0" />
  </g>
</svg>
