<?xml version="1.0" encoding="UTF-8" standalone="no"?>
<!-- Created with Inkscape (http://www.inkscape.org/) -->

<svg
   xmlns:dc="http://purl.org/dc/elements/1.1/"
   xmlns:cc="http://creativecommons.org/ns#"
   xmlns:rdf="http://www.w3.org/1999/02/22-rdf-syntax-ns#"
   xmlns:svg="http://www.w3.org/2000/svg"
   xmlns="http://www.w3.org/2000/svg"
   xmlns:sodipodi="http://sodipodi.sourceforge.net/DTD/sodipodi-0.dtd"
   xmlns:inkscape="http://www.inkscape.org/namespaces/inkscape"
   width="22.388571"
   height="14.000011"
   viewBox="0 0 5.9236429 3.7041698"
   version="1.1"
   id="svg8"
   inkscape:version="0.92.4 (5da689c313, 2019-01-14)"
   sodipodi:docname="vk.svg">
  <defs
     id="defs2" />
  <sodipodi:namedview
     id="base"
     pagecolor="#ffffff"
     bordercolor="#666666"
     borderopacity="1.0"
     inkscape:pageopacity="0.0"
     inkscape:pageshadow="2"
     inkscape:zoom="16.162958"
     inkscape:cx="17.441781"
     inkscape:cy="3.9333894"
     inkscape:document-units="mm"
     inkscape:current-layer="layer1"
     showgrid="false"
     fit-margin-top="0"
     fit-margin-left="0"
     fit-margin-right="0"
     fit-margin-bottom="0"
     units="px"
     inkscape:window-width="1600"
     inkscape:window-height="875"
     inkscape:window-x="0"
     inkscape:window-y="0"
     inkscape:window-maximized="1" />
  <metadata
     id="metadata5">
    <rdf:RDF>
      <cc:Work
         rdf:about="">
        <dc:format>image/svg+xml</dc:format>
        <dc:type
           rdf:resource="http://purl.org/dc/dcmitype/StillImage" />
        <dc:title></dc:title>
      </cc:Work>
    </rdf:RDF>
  </metadata>
  <g
     inkscape:label="Layer 1"
     inkscape:groupmode="layer"
     id="layer1"
     transform="translate(-39.654505,-79.322709)">
    <path
       style="fill:#6d6d6d;fill-opacity:1;stroke-width:0.01158277"
       d="m 42.441521,83.01608 c -0.652128,-0.07961 -1.275639,-0.499582 -1.821802,-1.227107 -0.35246,-0.469505 -0.671391,-1.075067 -0.854138,-1.621812 -0.147253,-0.440504 -0.147972,-0.62503 -0.0029,-0.752688 0.09517,-0.0838 0.117092,-0.08707 0.582394,-0.08707 0.298405,0 0.42441,0.004 0.459402,0.01455 0.123393,0.03749 0.228108,0.154833 0.287443,0.322067 0.125999,0.35504 0.296914,0.736901 0.44554,0.995392 0.0869,0.151203 0.216257,0.343713 0.276196,0.411231 l 0.04297,0.04838 -6.69e-4,-0.484673 c -7.78e-4,-0.561924 0.0048,-0.530933 -0.127342,-0.72835 -0.08541,-0.127743 -0.115573,-0.212669 -0.10553,-0.297278 0.0093,-0.07682 0.06034,-0.166353 0.122369,-0.213676 0.09642,-0.07361 0.11036,-0.07497 0.726937,-0.07118 0.627793,0.004 0.613547,0.0019 0.697399,0.09715 0.04949,0.05627 0.07981,0.138265 0.09432,0.255317 0.0053,0.04199 0.0064,0.325976 0.0029,0.631024 -0.0048,0.399339 -0.0029,0.554645 0.0061,0.554645 0.01694,0 0.146565,-0.153457 0.239879,-0.283773 0.159582,-0.222908 0.400306,-0.660536 0.522442,-0.949787 0.05591,-0.13246 0.146676,-0.230203 0.253661,-0.273213 0.06897,-0.02781 0.07268,-0.02781 0.486475,-0.02781 0.468001,0 0.490852,0.0034 0.583699,0.08271 0.06881,0.05893 0.09673,0.119794 0.102699,0.224238 0.004,0.07396 -3.5e-4,0.103387 -0.03104,0.198077 -0.07945,0.246367 -0.383378,0.777705 -0.732641,1.280798 -0.06272,0.09034 -0.114038,0.167604 -0.114038,0.171715 0,0.004 0.103627,0.11786 0.230284,0.252738 0.592752,0.631286 0.786634,0.929132 0.761485,1.169774 -0.0098,0.09246 -0.04297,0.158415 -0.110615,0.219038 -0.102587,0.0919 -0.11698,0.09448 -0.55105,0.09916 -0.42418,0.0045 -0.479907,-0.0011 -0.590723,-0.05933 -0.07868,-0.0414 -0.220813,-0.17752 -0.449536,-0.430497 -0.206382,-0.22827 -0.409706,-0.406639 -0.546426,-0.47932 -0.04316,-0.02298 -0.04668,-0.02338 -0.05434,-0.004 -0.0045,0.01135 -0.0085,0.163613 -0.0085,0.338795 -2.62e-4,0.380676 -0.0072,0.413733 -0.103915,0.501171 -0.06086,0.05498 -0.100204,0.07444 -0.20771,0.10262 -0.103675,0.02701 -0.371768,0.0383 -0.511861,0.02136 z m 0.437213,-0.376563 0.0262,-0.0077 -0.0026,-0.331659 c -0.0022,-0.285305 1.78e-4,-0.342181 0.01774,-0.406953 0.02701,-0.09952 0.07014,-0.15971 0.14132,-0.196264 0.05124,-0.02619 0.07094,-0.02942 0.179415,-0.02902 0.143942,7.42e-4 0.203034,0.01975 0.344357,0.111655 0.184736,0.120162 0.391802,0.313037 0.684661,0.637769 0.08469,0.09392 0.172844,0.185139 0.195859,0.202712 l 0.04183,0.03184 0.352257,0.0034 0.352219,0.0034 -0.008,-0.02661 c -0.01487,-0.05047 -0.08549,-0.1672 -0.16313,-0.270432 -0.131533,-0.174899 -0.276074,-0.33944 -0.60147,-0.684712 -0.171717,-0.182196 -0.194531,-0.214847 -0.220249,-0.315214 -0.01455,-0.05744 -0.01612,-0.08376 -0.0061,-0.129758 0.01733,-0.08114 0.03669,-0.115124 0.223431,-0.394219 0.200174,-0.299091 0.325937,-0.499812 0.457795,-0.730532 0.09634,-0.168611 0.188323,-0.362778 0.188323,-0.397565 0,-0.01487 -0.04519,-0.01733 -0.323036,-0.01733 -0.364753,0 -0.349959,-0.0037 -0.389664,0.09267 -0.05288,0.128062 -0.21799,0.459628 -0.299937,0.602302 -0.176592,0.307515 -0.401597,0.620561 -0.524808,0.730256 -0.06921,0.06163 -0.190419,0.1402 -0.255196,0.165509 -0.104282,0.04067 -0.234959,0.01814 -0.30034,-0.05212 -0.08546,-0.09158 -0.0948,-0.18804 -0.09557,-0.985516 L 42.89367,79.69235 h -0.430052 -0.429979 l 0.01853,0.02619 c 0.04914,0.06873 0.105722,0.181027 0.130445,0.258824 0.0461,0.14519 0.05292,0.261402 0.04796,0.815559 -0.004,0.434508 -0.0077,0.524142 -0.02338,0.57148 -0.06285,0.188726 -0.235686,0.256002 -0.420408,0.163534 -0.08175,-0.04091 -0.234477,-0.188282 -0.335329,-0.323479 -0.22456,-0.301146 -0.492496,-0.827651 -0.67216,-1.320873 -0.03024,-0.08284 -0.0628,-0.15971 -0.07252,-0.170829 -0.01612,-0.01853 -0.04801,-0.02015 -0.351774,-0.02015 -0.183768,0 -0.333998,0.004 -0.333837,0.0088 9.63e-4,0.03386 0.05135,0.227462 0.08663,0.332991 0.203519,0.608444 0.589778,1.294518 0.991238,1.760576 0.276758,0.321342 0.565256,0.554565 0.859833,0.695206 0.180502,0.08618 0.352137,0.138217 0.52917,0.160428 0.05687,0.0072 0.359433,-0.0011 0.390874,-0.01055 z"
       id="path908"
       inkscape:connector-curvature="0" />
  </g>
</svg>
